<svg width="89" height="89" viewBox="0 0 89 89" fill="none" xmlns="http://www.w3.org/2000/svg">
  <g id="a33819f9">
    <path id="aa645b1a" d="M31.5 21H46.5L34 33C26.8333 35 12.5 42.3 12.5 55.5C12.5 68.7 26.1667 74.6667 33 76H58.5L40 58.5C39.3333 57.6667 38 55.7 38 54.5C38 53.3 39.3333 51.3333 40 50.5L71 21H89C77.3333 31.8333 54 53.7 54 54.5C54 55.3 77.3333 77.5 89 88.5H31.5C21 87.5 0 79.5 0 55.5C0 31.5 21 22.5 31.5 21Z" fill="#4D70A2"></path>
    <path id="c5180ad2" d="M71 0H88L55 33H38L71 0Z" fill="#D24A43"></path>
  </g>
</svg>